<svg width="56" height="36" viewBox="0 0 56 36" fill="none" xmlns="http://www.w3.org/2000/svg">
<path d="M18.6784 26.9996C13.5174 26.9996 9.33278 22.9701 9.33278 18C9.33278 13.0299 13.5174 9 18.6784 9C23.8394 9 28.024 13.0291 28.024 18C28.024 22.9709 23.8398 26.9996 18.6784 26.9996ZM56 9V0C45.9998 0 37.8332 7.56357 37.3332 17.0758C36.8332 7.57098 28.6728 0.01399 18.6776 0.01399C8.36186 0.01399 0 8.06679 0 18.0008C0 27.9348 8.36186 35.9877 18.6776 35.9877C28.6712 35.9877 36.8316 28.4294 37.3332 18.9254C37.8323 28.436 45.9989 36 56 36V26.9996C50.8473 26.9996 46.656 22.9619 46.656 18C46.656 13.0381 50.8457 9.00041 56 9Z" fill="#77202B"/>
</svg>
